<svg width="786" height="607" viewBox="1090 1143 786 607" fill="none" xmlns="http://www.w3.org/2000/svg">
<path d="M1531.46 1568.71C1526.24 1568.7 1521.14 1567.15 1516.8 1564.25C1512.46 1561.34 1509.08 1557.22 1507.09 1552.39C1505.09 1547.57 1504.57 1542.26 1505.6 1537.14C1506.62 1532.02 1509.13 1527.32 1512.83 1523.63C1516.52 1519.94 1521.22 1517.43 1526.35 1516.41C1531.47 1515.39 1536.77 1515.92 1541.6 1517.92C1546.42 1519.92 1550.54 1523.3 1553.44 1527.64C1556.34 1531.98 1557.89 1537.08 1557.89 1542.31C1557.88 1549.31 1555.09 1556.02 1550.14 1560.98C1545.18 1565.93 1538.47 1568.71 1531.46 1568.71ZM1531.46 1531.56C1529.34 1531.56 1527.26 1532.2 1525.5 1533.38C1523.74 1534.57 1522.36 1536.25 1521.55 1538.21C1520.74 1540.17 1520.53 1542.33 1520.95 1544.42C1521.37 1546.5 1522.39 1548.41 1523.9 1549.91C1525.4 1551.41 1527.32 1552.43 1529.4 1552.85C1531.48 1553.26 1533.64 1553.04 1535.6 1552.23C1537.57 1551.42 1539.24 1550.04 1540.42 1548.27C1541.6 1546.51 1542.23 1544.43 1542.23 1542.31C1542.23 1540.89 1541.95 1539.49 1541.41 1538.19C1540.87 1536.88 1540.08 1535.7 1539.08 1534.7C1538.08 1533.7 1536.89 1532.91 1535.58 1532.37C1534.28 1531.83 1532.88 1531.56 1531.46 1531.56Z" fill="#2D5016"/>
<path d="M1531.46 1569.9C1526.01 1569.89 1520.67 1568.27 1516.14 1565.24C1511.61 1562.2 1508.07 1557.89 1505.99 1552.85C1503.9 1547.81 1503.36 1542.26 1504.43 1536.91C1505.5 1531.56 1508.12 1526.64 1511.98 1522.79C1515.84 1518.93 1520.76 1516.31 1526.11 1515.24C1531.46 1514.18 1537.01 1514.73 1542.05 1516.82C1547.09 1518.91 1551.4 1522.44 1554.43 1526.98C1557.46 1531.52 1559.08 1536.85 1559.08 1542.31C1559.07 1549.63 1556.16 1556.65 1550.98 1561.82C1545.8 1566.99 1538.78 1569.9 1531.46 1569.9ZM1531.46 1517.1C1526.48 1517.1 1521.6 1518.58 1517.46 1521.35C1513.31 1524.12 1510.08 1528.05 1508.17 1532.66C1506.26 1537.27 1505.76 1542.34 1506.74 1547.23C1507.71 1552.12 1510.11 1556.61 1513.64 1560.13C1517.16 1563.66 1521.65 1566.06 1526.54 1567.03C1531.43 1568.01 1536.5 1567.51 1541.11 1565.6C1545.72 1563.69 1549.65 1560.46 1552.42 1556.31C1555.19 1552.17 1556.67 1547.29 1556.67 1542.31C1556.67 1535.62 1554.01 1529.21 1549.28 1524.49C1544.56 1519.76 1538.15 1517.1 1531.46 1517.1ZM1531.46 1554.24C1529.1 1554.24 1526.8 1553.53 1524.84 1552.22C1522.88 1550.91 1521.35 1549.04 1520.45 1546.86C1519.55 1544.68 1519.32 1542.28 1519.78 1539.96C1520.25 1537.65 1521.38 1535.53 1523.06 1533.86C1524.73 1532.19 1526.85 1531.06 1529.17 1530.6C1531.48 1530.14 1533.88 1530.38 1536.06 1531.28C1538.24 1532.19 1540.1 1533.72 1541.41 1535.68C1542.72 1537.64 1543.42 1539.95 1543.42 1542.31C1543.42 1543.88 1543.11 1545.43 1542.51 1546.88C1541.91 1548.33 1541.03 1549.65 1539.92 1550.76C1538.81 1551.86 1537.49 1552.74 1536.04 1553.34C1534.59 1553.94 1533.03 1554.25 1531.46 1554.24Z" fill="#2D5016"/>
<path d="M1611.01 1568.71C1605.79 1568.7 1600.69 1567.15 1596.35 1564.25C1592.01 1561.34 1588.63 1557.22 1586.64 1552.39C1584.64 1547.57 1584.12 1542.26 1585.14 1537.14C1586.16 1532.02 1588.68 1527.32 1592.37 1523.63C1596.07 1519.94 1600.77 1517.43 1605.89 1516.41C1611.01 1515.39 1616.32 1515.92 1621.14 1517.92C1625.97 1519.92 1630.09 1523.3 1632.99 1527.64C1635.89 1531.98 1637.43 1537.08 1637.43 1542.31C1637.42 1549.31 1634.63 1556.02 1629.68 1560.97C1624.73 1565.92 1618.01 1568.7 1611.01 1568.71ZM1611.01 1531.56C1608.89 1531.56 1606.81 1532.2 1605.05 1533.38C1603.28 1534.57 1601.91 1536.25 1601.1 1538.21C1600.29 1540.17 1600.08 1542.33 1600.5 1544.42C1600.92 1546.5 1601.94 1548.41 1603.44 1549.91C1604.95 1551.41 1606.86 1552.43 1608.95 1552.85C1611.03 1553.26 1613.19 1553.04 1615.15 1552.23C1617.11 1551.42 1618.79 1550.04 1619.97 1548.27C1621.15 1546.51 1621.78 1544.43 1621.78 1542.31C1621.77 1539.45 1620.64 1536.72 1618.62 1534.71C1616.6 1532.69 1613.86 1531.56 1611.01 1531.56Z" fill="#2D5016"/>
<path d="M1611.13 1569.9C1605.67 1569.9 1600.34 1568.28 1595.8 1565.25C1591.26 1562.22 1587.72 1557.91 1585.64 1552.87C1583.55 1547.82 1583 1542.28 1584.07 1536.92C1585.13 1531.57 1587.76 1526.66 1591.62 1522.8C1595.48 1518.94 1600.39 1516.31 1605.74 1515.25C1611.1 1514.18 1616.64 1514.73 1621.69 1516.82C1626.73 1518.9 1631.04 1522.44 1634.07 1526.98C1637.1 1531.52 1638.72 1536.85 1638.72 1542.31C1638.71 1549.62 1635.8 1556.63 1630.62 1561.8C1625.45 1566.98 1618.44 1569.89 1611.13 1569.9ZM1611.13 1517.1C1606.14 1517.1 1601.27 1518.58 1597.12 1521.35C1592.98 1524.12 1589.74 1528.05 1587.84 1532.66C1585.93 1537.27 1585.43 1542.34 1586.4 1547.23C1587.37 1552.12 1589.78 1556.61 1593.3 1560.13C1596.83 1563.66 1601.32 1566.06 1606.21 1567.03C1611.1 1568.01 1616.17 1567.51 1620.77 1565.6C1625.38 1563.69 1629.32 1560.46 1632.09 1556.31C1634.86 1552.17 1636.34 1547.29 1636.34 1542.31C1636.32 1535.63 1633.66 1529.22 1628.94 1524.5C1624.21 1519.77 1617.81 1517.11 1611.13 1517.1ZM1611.13 1554.24C1608.77 1554.24 1606.46 1553.54 1604.5 1552.23C1602.53 1550.92 1601 1549.06 1600.1 1546.88C1599.2 1544.69 1598.96 1542.29 1599.42 1539.98C1599.88 1537.66 1601.02 1535.54 1602.69 1533.87C1604.36 1532.2 1606.48 1531.06 1608.8 1530.6C1611.11 1530.14 1613.51 1530.38 1615.7 1531.28C1617.88 1532.18 1619.74 1533.71 1621.05 1535.68C1622.36 1537.64 1623.06 1539.95 1623.06 1542.31C1623.06 1545.47 1621.8 1548.5 1619.56 1550.74C1617.32 1552.98 1614.29 1554.24 1611.13 1554.24Z" fill="#2D5016"/>
<path d="M1642.59 1493.95H1499.52L1467.96 1383.31L1443.29 1348.33L1457.56 1338.27L1483.94 1375.68L1512.67 1476.5H1629.36L1660.45 1365.84L1710.1 1322.76L1721.52 1335.93L1675.82 1375.61L1642.59 1493.95Z" fill="#2D5016"/>
<path d="M1643.49 1495.09H1498.62L1498.35 1494.22L1466.87 1383.78L1441.64 1347.99L1457.83 1336.57L1485.08 1375.32L1513.57 1475.26H1628.46L1659.41 1365.13L1659.65 1364.89L1710.22 1321.13L1723.22 1336.1L1676.89 1376.26L1643.49 1495.09ZM1500.42 1492.66H1641.69L1674.77 1374.83L1675.04 1374.59L1719.84 1335.69L1710.12 1324.31L1661.5 1366.39L1630.26 1477.57H1511.77L1511.53 1476.72L1482.84 1376.07L1457.27 1339.82L1444.97 1348.5L1469.11 1382.88L1500.42 1492.66Z" fill="#2D5016"/>
<path d="M1664.22 1386.89H1478.37C1477.19 1386.95 1476 1386.78 1474.89 1386.37C1473.78 1385.96 1472.76 1385.32 1471.9 1384.51C1471.05 1383.69 1470.36 1382.71 1469.89 1381.62C1469.42 1380.53 1469.18 1379.36 1469.18 1378.18C1469.18 1376.99 1469.42 1375.82 1469.89 1374.73C1470.36 1373.64 1471.05 1372.66 1471.9 1371.84C1472.76 1371.03 1473.78 1370.4 1474.89 1369.99C1476 1369.58 1477.19 1369.4 1478.37 1369.46H1664.22C1665.41 1369.4 1666.59 1369.58 1667.7 1369.99C1668.81 1370.4 1669.83 1371.03 1670.69 1371.84C1671.55 1372.66 1672.24 1373.64 1672.7 1374.73C1673.17 1375.82 1673.41 1376.99 1673.41 1378.18C1673.41 1379.36 1673.17 1380.53 1672.7 1381.62C1672.24 1382.71 1671.55 1383.69 1670.69 1384.51C1669.83 1385.32 1668.81 1385.96 1667.7 1386.37C1666.59 1386.78 1665.41 1386.95 1664.22 1386.89Z" fill="#2D5016"/>
<path d="M1664.22 1388.13H1478.37C1477.03 1388.2 1475.69 1387.99 1474.43 1387.52C1473.17 1387.05 1472.02 1386.33 1471.04 1385.41C1470.07 1384.48 1469.29 1383.37 1468.76 1382.13C1468.23 1380.9 1467.96 1379.57 1467.96 1378.22C1467.96 1376.88 1468.23 1375.55 1468.76 1374.31C1469.29 1373.08 1470.07 1371.96 1471.04 1371.04C1472.02 1370.11 1473.17 1369.39 1474.43 1368.93C1475.69 1368.46 1477.03 1368.25 1478.37 1368.32H1664.22C1665.57 1368.25 1666.91 1368.46 1668.17 1368.93C1669.43 1369.39 1670.58 1370.11 1671.55 1371.04C1672.53 1371.96 1673.3 1373.08 1673.83 1374.31C1674.36 1375.55 1674.63 1376.88 1674.63 1378.22C1674.63 1379.57 1674.36 1380.9 1673.83 1382.13C1673.3 1383.37 1672.53 1384.48 1671.55 1385.41C1670.58 1386.33 1669.43 1387.05 1668.17 1387.52C1666.91 1387.99 1665.57 1388.2 1664.22 1388.13ZM1478.37 1370.67C1476.37 1370.67 1474.45 1371.47 1473.04 1372.88C1471.63 1374.3 1470.83 1376.21 1470.83 1378.21C1470.83 1380.21 1471.63 1382.13 1473.04 1383.54C1474.45 1384.95 1476.37 1385.75 1478.37 1385.75H1664.22C1666.22 1385.75 1668.14 1384.95 1669.55 1383.54C1670.97 1382.13 1671.76 1380.21 1671.76 1378.21C1671.76 1376.21 1670.97 1374.3 1669.55 1372.88C1668.14 1371.47 1666.22 1370.67 1664.22 1370.67H1478.37Z" fill="#2D5016"/>
<path d="M1571.28 1490.84C1568.97 1490.84 1566.76 1489.93 1565.13 1488.29C1563.5 1486.66 1562.58 1484.45 1562.58 1482.14V1381.06C1562.52 1379.87 1562.7 1378.69 1563.1 1377.58C1563.51 1376.47 1564.15 1375.45 1564.96 1374.59C1565.78 1373.73 1566.76 1373.05 1567.85 1372.58C1568.94 1372.11 1570.11 1371.87 1571.29 1371.87C1572.48 1371.87 1573.65 1372.11 1574.74 1372.58C1575.83 1373.05 1576.81 1373.73 1577.63 1374.59C1578.44 1375.45 1579.07 1376.47 1579.48 1377.58C1579.89 1378.69 1580.07 1379.87 1580.01 1381.06V1482.14C1580.01 1483.28 1579.78 1484.42 1579.34 1485.48C1578.91 1486.53 1578.26 1487.49 1577.45 1488.3C1576.64 1489.11 1575.68 1489.75 1574.62 1490.19C1573.56 1490.62 1572.43 1490.85 1571.28 1490.84Z" fill="#2D5016"/>
<path d="M1571.29 1492.03C1568.66 1492.03 1566.15 1490.98 1564.29 1489.13C1562.43 1487.28 1561.38 1484.76 1561.37 1482.14V1381.06C1561.37 1378.43 1562.41 1375.9 1564.27 1374.04C1566.13 1372.18 1568.66 1371.14 1571.29 1371.14C1573.92 1371.14 1576.44 1372.18 1578.3 1374.04C1580.16 1375.9 1581.2 1378.43 1581.2 1381.06V1482.14C1581.2 1484.77 1580.15 1487.28 1578.29 1489.14C1576.43 1490.99 1573.91 1492.03 1571.29 1492.03ZM1571.29 1373.52C1570.3 1373.52 1569.32 1373.72 1568.41 1374.1C1567.49 1374.47 1566.66 1375.03 1565.97 1375.73C1565.27 1376.43 1564.71 1377.26 1564.34 1378.18C1563.96 1379.09 1563.77 1380.07 1563.77 1381.06V1482.14C1563.88 1484.06 1564.72 1485.87 1566.12 1487.19C1567.52 1488.51 1569.37 1489.25 1571.3 1489.25C1573.22 1489.25 1575.07 1488.51 1576.47 1487.19C1577.87 1485.87 1578.71 1484.06 1578.82 1482.14V1381.06C1578.82 1379.06 1578.02 1377.15 1576.61 1375.74C1575.19 1374.34 1573.28 1373.55 1571.29 1373.55V1373.52Z" fill="#2D5016"/>
<path d="M1530.57 1490.84C1529.42 1490.84 1528.29 1490.62 1527.23 1490.19C1526.17 1489.75 1525.21 1489.11 1524.4 1488.3C1523.59 1487.49 1522.94 1486.53 1522.5 1485.47C1522.07 1484.42 1521.84 1483.28 1521.84 1482.14V1381.06C1521.84 1378.74 1522.76 1376.52 1524.4 1374.88C1526.03 1373.25 1528.25 1372.33 1530.57 1372.33C1532.88 1372.33 1535.1 1373.25 1536.74 1374.88C1538.38 1376.52 1539.29 1378.74 1539.29 1381.06V1482.14C1539.29 1483.28 1539.07 1484.42 1538.63 1485.47C1538.19 1486.53 1537.55 1487.49 1536.74 1488.3C1535.93 1489.11 1534.96 1489.75 1533.91 1490.19C1532.85 1490.62 1531.71 1490.84 1530.57 1490.84Z" fill="#2D5016"/>
<path d="M1530.56 1492.03C1527.94 1492.03 1525.42 1490.99 1523.56 1489.14C1521.7 1487.28 1520.65 1484.77 1520.64 1482.14V1381.06C1520.64 1378.43 1521.69 1375.9 1523.55 1374.04C1525.41 1372.18 1527.93 1371.14 1530.56 1371.14C1533.19 1371.14 1535.72 1372.18 1537.58 1374.04C1539.44 1375.9 1540.48 1378.43 1540.48 1381.06V1482.14C1540.47 1484.76 1539.42 1487.28 1537.56 1489.13C1535.7 1490.98 1533.19 1492.03 1530.56 1492.03ZM1530.56 1373.52C1528.56 1373.52 1526.65 1374.32 1525.23 1375.73C1523.82 1377.14 1523.03 1379.06 1523.03 1381.06V1482.14C1523.14 1484.06 1523.98 1485.87 1525.38 1487.19C1526.77 1488.51 1528.63 1489.25 1530.55 1489.25C1532.48 1489.25 1534.33 1488.51 1535.73 1487.19C1537.13 1485.87 1537.97 1484.06 1538.08 1482.14V1381.06C1538.08 1379.06 1537.28 1377.15 1535.87 1375.75C1534.47 1374.34 1532.56 1373.55 1530.56 1373.55V1373.52Z" fill="#2D5016"/>
<path d="M1612.03 1490.84C1610.88 1490.84 1609.75 1490.62 1608.69 1490.19C1607.63 1489.75 1606.67 1489.11 1605.86 1488.3C1605.05 1487.49 1604.4 1486.53 1603.97 1485.47C1603.53 1484.42 1603.3 1483.28 1603.3 1482.14V1381.06C1603.3 1378.74 1604.22 1376.52 1605.86 1374.88C1607.49 1373.25 1609.71 1372.33 1612.03 1372.33C1614.34 1372.33 1616.56 1373.25 1618.2 1374.88C1619.84 1376.52 1620.76 1378.74 1620.76 1381.06V1482.14C1620.76 1483.28 1620.53 1484.42 1620.09 1485.47C1619.65 1486.53 1619.01 1487.49 1618.2 1488.3C1617.39 1489.11 1616.42 1489.75 1615.37 1490.19C1614.31 1490.62 1613.17 1490.84 1612.03 1490.84Z" fill="#2D5016"/>
<path d="M1612.03 1492.03C1609.4 1492.03 1606.88 1490.99 1605.02 1489.14C1603.16 1487.28 1602.12 1484.77 1602.11 1482.14V1381.06C1602.11 1378.43 1603.15 1375.9 1605.01 1374.04C1606.87 1372.18 1609.4 1371.14 1612.03 1371.14C1614.66 1371.14 1617.18 1372.18 1619.04 1374.04C1620.9 1375.9 1621.95 1378.43 1621.95 1381.06V1482.14C1621.94 1484.77 1620.89 1487.28 1619.03 1489.14C1617.17 1490.99 1614.65 1492.03 1612.03 1492.03ZM1612.03 1373.52C1610.03 1373.52 1608.11 1374.32 1606.7 1375.73C1605.29 1377.14 1604.49 1379.06 1604.49 1381.06V1482.14C1604.49 1484.14 1605.29 1486.06 1606.7 1487.47C1608.11 1488.88 1610.03 1489.68 1612.03 1489.68C1614.03 1489.68 1615.94 1488.88 1617.36 1487.47C1618.77 1486.06 1619.56 1484.14 1619.56 1482.14V1381.06C1619.56 1379.06 1618.76 1377.15 1617.35 1375.74C1615.94 1374.34 1614.02 1373.55 1612.03 1373.55V1373.52Z" fill="#2D5016"/>
<path d="M1648.9 1440.3H1492.73C1491.55 1440.36 1490.37 1440.18 1489.26 1439.77C1488.14 1439.36 1487.13 1438.73 1486.27 1437.92C1485.41 1437.1 1484.72 1436.12 1484.26 1435.03C1483.79 1433.94 1483.55 1432.77 1483.55 1431.58C1483.55 1430.4 1483.79 1429.23 1484.26 1428.14C1484.72 1427.05 1485.41 1426.07 1486.27 1425.25C1487.13 1424.44 1488.14 1423.81 1489.26 1423.4C1490.37 1422.99 1491.55 1422.81 1492.73 1422.87H1648.9C1651.14 1422.99 1653.24 1423.96 1654.78 1425.58C1656.31 1427.2 1657.17 1429.35 1657.17 1431.58C1657.17 1433.82 1656.31 1435.97 1654.78 1437.59C1653.24 1439.21 1651.14 1440.18 1648.9 1440.3Z" fill="#2D5016"/>
<path d="M1610.4 1383.8C1608.3 1383.8 1606.27 1383.04 1604.68 1381.66C1603.1 1380.28 1602.06 1378.37 1601.77 1376.29C1599.53 1360.39 1593.02 1348.09 1582.32 1339.83C1578.9 1337.08 1574.63 1335.62 1570.25 1335.7C1565.87 1335.77 1561.65 1337.38 1558.33 1340.24C1544.57 1352.74 1543.08 1375.39 1543.08 1375.61C1542.96 1377.92 1541.92 1380.09 1540.2 1381.64C1538.47 1383.18 1536.21 1383.98 1533.89 1383.85C1531.58 1383.73 1529.42 1382.69 1527.87 1380.96C1526.33 1379.24 1525.53 1376.97 1525.65 1374.66C1525.65 1373.45 1527.48 1344.71 1546.61 1327.33C1552.95 1321.64 1561.11 1318.4 1569.62 1318.17C1578.14 1317.94 1586.45 1320.75 1593.09 1326.09C1602.81 1333.8 1615.36 1348.34 1618.96 1373.91C1619.28 1376.2 1618.67 1378.53 1617.28 1380.37C1615.88 1382.22 1613.81 1383.44 1611.52 1383.76C1611.15 1383.8 1610.77 1383.82 1610.4 1383.8Z" fill="#2D5016"/>
<path d="M1610.4 1384.99C1608.03 1384.96 1605.75 1384.08 1603.97 1382.51C1602.19 1380.95 1601.02 1378.81 1600.68 1376.46C1598.49 1360.88 1592.12 1348.85 1581.79 1340.7C1578.59 1338.14 1574.59 1336.77 1570.49 1336.83C1566.39 1336.9 1562.44 1338.4 1559.32 1341.07C1546.12 1353.05 1544.52 1374.71 1544.45 1375.64C1544.3 1378.16 1543.2 1380.53 1541.37 1382.26C1539.53 1384 1537.1 1384.97 1534.58 1384.97H1534.02C1531.4 1384.82 1528.94 1383.64 1527.19 1381.69C1525.43 1379.73 1524.52 1377.16 1524.66 1374.54C1524.85 1371.43 1526.97 1343.69 1546 1326.38C1552.56 1320.52 1560.99 1317.17 1569.79 1316.94C1578.59 1316.71 1587.18 1319.6 1594.04 1325.12C1604.01 1332.95 1616.67 1347.75 1620.32 1373.74C1620.68 1376.34 1619.99 1378.98 1618.41 1381.08C1616.83 1383.18 1614.48 1384.57 1611.88 1384.95C1611.39 1384.99 1610.89 1385.01 1610.4 1384.99ZM1570.48 1334.45C1575.07 1334.46 1579.53 1336 1583.15 1338.83C1594.01 1347.36 1600.68 1359.91 1602.94 1376.12C1603.24 1378.09 1604.3 1379.86 1605.89 1381.06C1607.48 1382.26 1609.47 1382.79 1611.45 1382.54C1613.42 1382.26 1615.21 1381.2 1616.41 1379.61C1617.61 1378.01 1618.13 1376.01 1617.86 1374.03C1614.31 1348.87 1602.09 1334.55 1592.46 1326.99C1586.05 1321.82 1578.01 1319.09 1569.77 1319.31C1561.53 1319.52 1553.64 1322.66 1547.51 1328.16C1528.84 1345.17 1527.02 1373.47 1526.94 1374.69C1526.85 1376.67 1527.54 1378.62 1528.87 1380.09C1530.2 1381.57 1532.06 1382.47 1534.04 1382.59C1535.04 1382.68 1536.04 1382.56 1536.99 1382.25C1537.94 1381.94 1538.81 1381.43 1539.56 1380.76C1540.3 1380.1 1540.9 1379.29 1541.32 1378.38C1541.74 1377.47 1541.97 1376.49 1541.99 1375.49C1541.99 1374.52 1543.74 1351.93 1557.65 1339.29C1561.18 1336.14 1565.75 1334.42 1570.48 1334.45Z" fill="#2D5016"/>
<path d="M1771.3 1252.39C1747.49 1227.69 1719.04 1207.98 1687.59 1194.38C1656.14 1180.79 1622.32 1173.59 1588.08 1173.2C1553.84 1172.8 1519.87 1179.23 1488.12 1192.09C1456.37 1204.96 1427.47 1224.02 1403.1 1248.16L1120 1523.33L1146.19 1550.12L1429.1 1274.95C1451.23 1252.92 1477.78 1235.87 1506.99 1224.95C1536.2 1214.03 1567.39 1209.49 1598.49 1211.63C1711.52 1218.47 1804.22 1312.73 1809.53 1426.41C1812.14 1472.54 1800.51 1518.35 1776.23 1557.6C1751.95 1596.84 1716.19 1627.61 1673.84 1645.71C1631.49 1663.8 1584.61 1668.34 1539.6 1658.7C1494.59 1649.06 1453.63 1625.71 1422.33 1591.85L1283.3 1443.32L1281.28 1441.26L1256.24 1465.8L1254.77 1467.5L1394.91 1617.26C1418.75 1642.22 1447.26 1662.21 1478.82 1676.08C1510.37 1689.95 1544.35 1697.43 1578.79 1698.09C1613.23 1698.75 1647.47 1692.57 1679.52 1679.91C1711.58 1667.26 1740.84 1648.37 1765.6 1624.34C1790.37 1600.3 1810.17 1571.6 1823.86 1539.86C1837.54 1508.13 1844.85 1474 1845.37 1439.42C1845.88 1404.85 1839.59 1370.51 1826.84 1338.38C1814.1 1306.25 1795.17 1276.97 1771.12 1252.2L1771.3 1252.39Z" fill="#2D5016"/>
<path d="M1228.81 1388.72L1205.06 1413.71L1144.82 1344.42L1168.57 1322.08L1228.81 1388.72Z" fill="#2D5016"/>
<path d="M1206.67 1415.61L1141 1344.8L1168.96 1320.17L1234.54 1388.14L1206.67 1415.61ZM1147.28 1345.12L1206.72 1409.33L1228.12 1388.23L1168.6 1326.45L1147.28 1345.12Z" fill="#2D5016"/>
</svg>